<svg xmlns="http://www.w3.org/2000/svg" viewBox="0 0 705.44 283.85"><defs><style>.cls-1{fill:#222;}.cls-2{fill:#fab432;}</style></defs><g id="Layer_2" data-name="Layer 2"><g id="Layer_1-2" data-name="Layer 1"><path class="cls-1" d="M0,226.08H24.71c12.15,0,21.24,7.77,21.24,18.85s-9.09,18.84-21.24,18.84H10.33v19.09H0Zm23.55,28.18c7,0,11.9-3.55,11.9-9.33s-4.87-9.34-11.9-9.34H10.33v18.67Z"/><path class="cls-1" d="M60.16,254.43c0-16,13.63-29.34,29.83-29.34s29.75,13.39,29.75,29.34S106.11,283.85,90,283.85,60.16,270.38,60.16,254.43Zm49,0c0-10.83-8.76-19.92-19.17-19.92s-19.34,9.09-19.34,19.92,8.85,20,19.34,20S109.16,265.34,109.16,254.43Z"/><path class="cls-1" d="M176.43,273.44v9.42H137V226.08h10.24v47.36Z"/><path class="cls-1" d="M232,273.44v9.42H192.54V226.08h10.24v47.36Z"/><path class="cls-1" d="M248.73,226.08H259v56.78H248.73Z"/><path class="cls-1" d="M279.88,226.08h10.33l30,39.92V226.08h10.25v56.78H320.21l-30-39.92v39.92H279.88Z"/><path class="cls-1" d="M390.12,272.61H362.68l-4.3,10.25H346.9l23.71-56.78H382.1l23.72,56.78H394.41Zm-3.72-8.93-10-23.88-10,23.88Z"/><path class="cls-1" d="M431.6,235.5H413.42v-9.42H460v9.42H441.84v47.36H431.6Z"/><path class="cls-1" d="M477.29,226.08h10.25v56.78H477.29Z"/><path class="cls-1" d="M505.55,254.43c0-16,13.63-29.34,29.83-29.34s29.75,13.39,29.75,29.34-13.63,29.42-29.75,29.42S505.55,270.38,505.55,254.43Zm49,0c0-10.83-8.76-19.92-19.18-19.92S516,243.6,516,254.43s8.85,20,19.34,20S554.56,265.34,554.56,254.43Z"/><path class="cls-1" d="M583.64,226.08H594L624,266V226.08h10.24v56.78H624l-30-39.92v39.92H583.64Z"/><path class="cls-1" d="M684.37,254.43l21.07,28.43H693.21l-15-20.17-15,20.17H651.07l21.07-28.35-21.07-28.43h12.31l15,20.17,15-20.17h12.06Z"/><path class="cls-2" d="M352.75,0,271.23,47.13v94.66L346,184.94l6,17.75h1.74l5.86-17.77,74.66-43.13V47.13Zm33.54,158.16-33.54,19.37-33.6-19.4V139.45l33.6,19.4,33.61-19.4Zm-33.54-10.62-33.6-19.41V109.46l33.6,19.4,33.54-19.36.07,18.63Zm33.54-49.36-33.54,19.37-33.6-19.41V79.47l33.6,19.4L386.29,79.5ZM352.75,87.56,324.5,71.24l28.25-16.31L381,71.24ZM342.26,49.68l-28,16.16-28-16.17,28-16.16Zm48.95,16.14-28-16.14,28-16.15,28,16.14Zm-9.95-37.95L352.75,44.33l-28.5-16.46,28.5-16.46ZM281,57.83l28.4,16.4V92.62L281,76.23Zm0,29.62,28.4,16.4v18.73L281,106.18Zm0,30,28.4,16.39v18.78L281,136.18Zm143.54,18.77-28.33,16.36V133.77l28.33-16.36Zm0-30-28.33,16.36V103.81l28.33-16.36ZM396.16,92.59V74.19l28.33-16.36v18.4Z"/></g></g></svg>